<svg width="640" height="120" viewBox="0 0 640 120" fill="none" xmlns="http://www.w3.org/2000/svg">
<g filter="url(#filter0_d_1_3778)">
<rect x="20" y="12" width="600" height="80" rx="15" fill="url(#paint0_linear_1_3778)" shape-rendering="crispEdges"/>
<path d="M248.503 64H257.953C260.553 64 262.583 63.39 264.043 62.17C265.503 60.95 266.233 59.24 266.233 57.04C266.233 56.06 266.053 55.14 265.693 54.28C265.353 53.4 264.693 52.62 263.713 51.94C264.273 51.4 264.673 50.81 264.913 50.17C265.173 49.53 265.303 48.87 265.303 48.19C265.303 46.13 264.653 44.53 263.353 43.39C262.073 42.23 260.273 41.65 257.953 41.65H248.503V64ZM253.153 50.05V45.55H258.283C259.003 45.55 259.573 45.76 259.993 46.18C260.433 46.58 260.653 47.12 260.653 47.8C260.653 48.48 260.433 49.03 259.993 49.45C259.573 49.85 259.003 50.05 258.283 50.05H253.153ZM253.153 59.95V54.1H258.493C259.433 54.1 260.183 54.37 260.743 54.91C261.303 55.45 261.583 56.16 261.583 57.04C261.583 57.9 261.303 58.6 260.743 59.14C260.183 59.68 259.433 59.95 258.493 59.95H253.153ZM278.096 64.36C279.856 64.36 281.426 63.99 282.806 63.25C284.186 62.51 285.266 61.5 286.046 60.22C286.846 58.92 287.246 57.45 287.246 55.81V41.65H282.596V55.51C282.596 56.39 282.396 57.19 281.996 57.91C281.616 58.61 281.086 59.16 280.406 59.56C279.746 59.96 278.976 60.16 278.096 60.16C277.236 60.16 276.466 59.96 275.786 59.56C275.106 59.16 274.566 58.61 274.166 57.91C273.786 57.19 273.596 56.39 273.596 55.51V41.65H268.946V55.81C268.946 57.45 269.336 58.92 270.116 60.22C270.916 61.5 272.006 62.51 273.386 63.25C274.766 63.99 276.336 64.36 278.096 64.36ZM296.715 64H301.365V54.22L308.775 41.65H303.465L299.025 49.48L294.585 41.65H289.275L296.715 54.25V64ZM316.472 64H321.122V50.41L331.172 64H334.772V41.65H330.122V54.94L320.042 41.65H316.472V64ZM349.928 64.36C351.608 64.36 353.168 64.07 354.608 63.49C356.048 62.91 357.298 62.1 358.358 61.06C359.438 60 360.278 58.77 360.878 57.37C361.478 55.97 361.778 54.45 361.778 52.81C361.778 51.17 361.478 49.65 360.878 48.25C360.298 46.85 359.468 45.63 358.388 44.59C357.328 43.55 356.078 42.74 354.638 42.16C353.198 41.58 351.628 41.29 349.928 41.29C348.228 41.29 346.658 41.58 345.218 42.16C343.778 42.74 342.518 43.55 341.438 44.59C340.378 45.63 339.548 46.85 338.948 48.25C338.368 49.65 338.078 51.17 338.078 52.81C338.078 54.45 338.378 55.97 338.978 57.37C339.578 58.77 340.408 60 341.468 61.06C342.548 62.1 343.808 62.91 345.248 63.49C346.688 64.07 348.248 64.36 349.928 64.36ZM349.928 60.16C348.568 60.16 347.338 59.85 346.238 59.23C345.158 58.59 344.298 57.72 343.658 56.62C343.038 55.52 342.728 54.25 342.728 52.81C342.728 51.37 343.038 50.1 343.658 49C344.298 47.9 345.158 47.04 346.238 46.42C347.338 45.8 348.568 45.49 349.928 45.49C351.288 45.49 352.508 45.8 353.588 46.42C354.688 47.04 355.548 47.9 356.168 49C356.808 50.1 357.128 51.37 357.128 52.81C357.128 54.25 356.808 55.52 356.168 56.62C355.548 57.72 354.688 58.59 353.588 59.23C352.508 59.85 351.288 60.16 349.928 60.16ZM368.69 64H374.09L377.99 49L381.89 64H387.29L393.14 41.65H388.1L384.35 57.58L380.39 41.65H375.59L371.63 57.58L367.88 41.65H362.84L368.69 64Z" fill="#363636"/>
</g>
<defs>
<filter id="filter0_d_1_3778" x="0" y="0" width="640" height="120" filterUnits="userSpaceOnUse" color-interpolation-filters="sRGB">
<feFlood flood-opacity="0" result="BackgroundImageFix"/>
<feColorMatrix in="SourceAlpha" type="matrix" values="0 0 0 0 0 0 0 0 0 0 0 0 0 0 0 0 0 0 127 0" result="hardAlpha"/>
<feOffset dy="8"/>
<feGaussianBlur stdDeviation="10"/>
<feComposite in2="hardAlpha" operator="out"/>
<feColorMatrix type="matrix" values="0 0 0 0 0 0 0 0 0 0 0 0 0 0 0 0 0 0 0.15 0"/>
<feBlend mode="normal" in2="BackgroundImageFix" result="effect1_dropShadow_1_3778"/>
<feBlend mode="normal" in="SourceGraphic" in2="effect1_dropShadow_1_3778" result="shape"/>
</filter>
<linearGradient id="paint0_linear_1_3778" x1="320" y1="12" x2="320" y2="92" gradientUnits="userSpaceOnUse">
<stop stop-color="#FFE600"/>
<stop offset="1" stop-color="#FFC700"/>
</linearGradient>
</defs>
</svg>
