<svg width="600" height="80" viewBox="0 0 600 80" fill="none" xmlns="http://www.w3.org/2000/svg">
<rect width="600" height="80" rx="15" fill="#FFD800"/>
<path d="M228.503 52H237.953C240.553 52 242.583 51.39 244.043 50.17C245.503 48.95 246.233 47.24 246.233 45.04C246.233 44.06 246.053 43.14 245.693 42.28C245.353 41.4 244.693 40.62 243.713 39.94C244.273 39.4 244.673 38.81 244.913 38.17C245.173 37.53 245.303 36.87 245.303 36.19C245.303 34.13 244.653 32.53 243.353 31.39C242.073 30.23 240.273 29.65 237.953 29.65H228.503V52ZM233.153 38.05V33.55H238.283C239.003 33.55 239.573 33.76 239.993 34.18C240.433 34.58 240.653 35.12 240.653 35.8C240.653 36.48 240.433 37.03 239.993 37.45C239.573 37.85 239.003 38.05 238.283 38.05H233.153ZM233.153 47.95V42.1H238.493C239.433 42.1 240.183 42.37 240.743 42.91C241.303 43.45 241.583 44.16 241.583 45.04C241.583 45.9 241.303 46.6 240.743 47.14C240.183 47.68 239.433 47.95 238.493 47.95H233.153ZM258.096 52.36C259.856 52.36 261.426 51.99 262.806 51.25C264.186 50.51 265.266 49.5 266.046 48.22C266.846 46.92 267.246 45.45 267.246 43.81V29.65H262.596V43.51C262.596 44.39 262.396 45.19 261.996 45.91C261.616 46.61 261.086 47.16 260.406 47.56C259.746 47.96 258.976 48.16 258.096 48.16C257.236 48.16 256.466 47.96 255.786 47.56C255.106 47.16 254.566 46.61 254.166 45.91C253.786 45.19 253.596 44.39 253.596 43.51V29.65H248.946V43.81C248.946 45.45 249.336 46.92 250.116 48.22C250.916 49.5 252.006 50.51 253.386 51.25C254.766 51.99 256.336 52.36 258.096 52.36ZM276.715 52H281.365V42.22L288.775 29.65H283.465L279.025 37.48L274.585 29.65H269.275L276.715 42.25V52ZM296.472 52H301.122V38.41L311.172 52H314.772V29.65H310.122V42.94L300.042 29.65H296.472V52ZM329.928 52.36C331.608 52.36 333.168 52.07 334.608 51.49C336.048 50.91 337.298 50.1 338.358 49.06C339.438 48 340.278 46.77 340.878 45.37C341.478 43.97 341.778 42.45 341.778 40.81C341.778 39.17 341.478 37.65 340.878 36.25C340.298 34.85 339.468 33.63 338.388 32.59C337.328 31.55 336.078 30.74 334.638 30.16C333.198 29.58 331.628 29.29 329.928 29.29C328.228 29.29 326.658 29.58 325.218 30.16C323.778 30.74 322.518 31.55 321.438 32.59C320.378 33.63 319.548 34.85 318.948 36.25C318.368 37.65 318.078 39.17 318.078 40.81C318.078 42.45 318.378 43.97 318.978 45.37C319.578 46.77 320.408 48 321.468 49.06C322.548 50.1 323.808 50.91 325.248 51.49C326.688 52.07 328.248 52.36 329.928 52.36ZM329.928 48.16C328.568 48.16 327.338 47.85 326.238 47.23C325.158 46.59 324.298 45.72 323.658 44.62C323.038 43.52 322.728 42.25 322.728 40.81C322.728 39.37 323.038 38.1 323.658 37C324.298 35.9 325.158 35.04 326.238 34.42C327.338 33.8 328.568 33.49 329.928 33.49C331.288 33.49 332.508 33.8 333.588 34.42C334.688 35.04 335.548 35.9 336.168 37C336.808 38.1 337.128 39.37 337.128 40.81C337.128 42.25 336.808 43.52 336.168 44.62C335.548 45.72 334.688 46.59 333.588 47.23C332.508 47.85 331.288 48.16 329.928 48.16ZM348.69 52H354.09L357.99 37L361.89 52H367.29L373.14 29.65H368.1L364.35 45.58L360.39 29.65H355.59L351.63 45.58L347.88 29.65H342.84L348.69 52Z" fill="#363636"/>
</svg>
