<svg width="380" height="105" viewBox="0 0 380 105" fill="none" xmlns="http://www.w3.org/2000/svg">
<g filter="url(#filter0_d_1_3800)">
<rect x="20" y="12" width="340" height="73" rx="15" fill="url(#paint0_linear_1_3800)" shape-rendering="crispEdges"/>
<path d="M123.27 49H132.09C134.517 49 136.411 48.4307 137.774 47.292C139.137 46.1533 139.818 44.5573 139.818 42.504C139.818 41.5893 139.65 40.7307 139.314 39.928C138.997 39.1067 138.381 38.3787 137.466 37.744C137.989 37.24 138.362 36.6893 138.586 36.092C138.829 35.4947 138.95 34.8787 138.95 34.244C138.95 32.3213 138.343 30.828 137.13 29.764C135.935 28.6813 134.255 28.14 132.09 28.14H123.27V49ZM127.61 35.98V31.78H132.398C133.07 31.78 133.602 31.976 133.994 32.368C134.405 32.7413 134.61 33.2453 134.61 33.88C134.61 34.5147 134.405 35.028 133.994 35.42C133.602 35.7933 133.07 35.98 132.398 35.98H127.61ZM127.61 45.22V39.76H132.594C133.471 39.76 134.171 40.012 134.694 40.516C135.217 41.02 135.478 41.6827 135.478 42.504C135.478 43.3067 135.217 43.96 134.694 44.464C134.171 44.968 133.471 45.22 132.594 45.22H127.61ZM150.89 49.336C152.533 49.336 153.998 48.9907 155.286 48.3C156.574 47.6093 157.582 46.6667 158.31 45.472C159.057 44.2587 159.43 42.8867 159.43 41.356V28.14H155.09V41.076C155.09 41.8973 154.903 42.644 154.53 43.316C154.175 43.9693 153.681 44.4827 153.046 44.856C152.43 45.2293 151.711 45.416 150.89 45.416C150.087 45.416 149.369 45.2293 148.734 44.856C148.099 44.4827 147.595 43.9693 147.222 43.316C146.867 42.644 146.69 41.8973 146.69 41.076V28.14H142.35V41.356C142.35 42.8867 142.714 44.2587 143.442 45.472C144.189 46.6667 145.206 47.6093 146.494 48.3C147.782 48.9907 149.247 49.336 150.89 49.336ZM168.268 49H172.608V39.872L179.524 28.14H174.568L170.424 35.448L166.28 28.14H161.324L168.268 39.9V49ZM186.707 49H191.047V36.316L200.427 49H203.787V28.14H199.447V40.544L190.039 28.14H186.707V49ZM217.933 49.336C219.501 49.336 220.957 49.0653 222.301 48.524C223.645 47.9827 224.811 47.2267 225.801 46.256C226.809 45.2667 227.593 44.1187 228.153 42.812C228.713 41.5053 228.993 40.0867 228.993 38.556C228.993 37.0253 228.713 35.6067 228.153 34.3C227.611 32.9933 226.837 31.8547 225.829 30.884C224.839 29.9133 223.673 29.1573 222.329 28.616C220.985 28.0747 219.519 27.804 217.933 27.804C216.346 27.804 214.881 28.0747 213.537 28.616C212.193 29.1573 211.017 29.9133 210.009 30.884C209.019 31.8547 208.245 32.9933 207.685 34.3C207.143 35.6067 206.873 37.0253 206.873 38.556C206.873 40.0867 207.153 41.5053 207.713 42.812C208.273 44.1187 209.047 45.2667 210.037 46.256C211.045 47.2267 212.221 47.9827 213.565 48.524C214.909 49.0653 216.365 49.336 217.933 49.336ZM217.933 45.416C216.663 45.416 215.515 45.1267 214.489 44.548C213.481 43.9507 212.678 43.1387 212.081 42.112C211.502 41.0853 211.213 39.9 211.213 38.556C211.213 37.212 211.502 36.0267 212.081 35C212.678 33.9733 213.481 33.1707 214.489 32.592C215.515 32.0133 216.663 31.724 217.933 31.724C219.202 31.724 220.341 32.0133 221.349 32.592C222.375 33.1707 223.178 33.9733 223.757 35C224.354 36.0267 224.653 37.212 224.653 38.556C224.653 39.9 224.354 41.0853 223.757 42.112C223.178 43.1387 222.375 43.9507 221.349 44.548C220.341 45.1267 219.202 45.416 217.933 45.416ZM235.444 49H240.484L244.124 35L247.764 49H252.804L258.264 28.14H253.56L250.06 43.008L246.364 28.14H241.884L238.188 43.008L234.688 28.14H229.984L235.444 49Z" fill="#363636"/>
<path d="M110.68 72.8H112.03V71.198C112.798 71.126 113.476 70.928 114.064 70.604C114.652 70.268 115.108 69.836 115.432 69.308C115.768 68.768 115.936 68.156 115.936 67.472C115.936 65.72 114.868 64.514 112.732 63.854L112.03 63.638V59.084C112.558 59.228 113.02 59.486 113.416 59.858C113.812 60.218 114.118 60.686 114.334 61.262L115.846 60.632C115.582 59.852 115.114 59.174 114.442 58.598C113.782 58.01 112.978 57.632 112.03 57.464V55.79H110.68V57.374C109.924 57.422 109.258 57.608 108.682 57.932C108.106 58.256 107.65 58.694 107.314 59.246C106.99 59.786 106.828 60.404 106.828 61.1C106.828 61.94 107.086 62.684 107.602 63.332C108.118 63.98 108.862 64.454 109.834 64.754L110.68 65.006V69.542C110.02 69.41 109.444 69.128 108.952 68.696C108.46 68.252 108.082 67.67 107.818 66.95L106.288 67.58C106.576 68.492 107.104 69.284 107.872 69.956C108.652 70.616 109.588 71.018 110.68 71.162V72.8ZM110.482 63.188C109.846 62.984 109.372 62.69 109.06 62.306C108.748 61.91 108.592 61.472 108.592 60.992C108.592 60.416 108.784 59.948 109.168 59.588C109.552 59.228 110.056 59.024 110.68 58.976V63.242L110.482 63.188ZM112.3 65.51C112.9 65.69 113.362 65.942 113.686 66.266C114.01 66.59 114.172 67.034 114.172 67.598C114.172 68.15 113.974 68.606 113.578 68.966C113.194 69.314 112.678 69.524 112.03 69.596V65.42L112.3 65.51ZM122.424 71.216C123.312 71.216 124.098 71.024 124.782 70.64C125.478 70.244 126.024 69.71 126.42 69.038C126.828 68.366 127.032 67.61 127.032 66.77C127.032 65.942 126.846 65.192 126.474 64.52C126.102 63.848 125.586 63.32 124.926 62.936C124.266 62.54 123.498 62.342 122.622 62.342C122.178 62.342 121.758 62.396 121.362 62.504C120.966 62.612 120.594 62.786 120.246 63.026L120.804 59.12H126.492V57.59H119.544L118.518 64.916L119.94 65.222C120.144 64.838 120.474 64.52 120.93 64.268C121.386 64.016 121.89 63.89 122.442 63.89C122.982 63.89 123.462 64.016 123.882 64.268C124.302 64.508 124.632 64.844 124.872 65.276C125.124 65.708 125.25 66.206 125.25 66.77C125.25 67.31 125.124 67.796 124.872 68.228C124.632 68.66 124.302 69.002 123.882 69.254C123.462 69.506 122.976 69.632 122.424 69.632C121.752 69.632 121.128 69.452 120.552 69.092C119.988 68.72 119.58 68.204 119.328 67.544L117.888 68.156C118.104 68.78 118.434 69.326 118.878 69.794C119.322 70.25 119.85 70.604 120.462 70.856C121.074 71.096 121.728 71.216 122.424 71.216ZM138.914 71.216C139.742 71.216 140.528 71.072 141.272 70.784C142.016 70.496 142.67 70.082 143.234 69.542C143.798 69.002 144.242 68.36 144.566 67.616C144.89 66.86 145.052 66.014 145.052 65.078V63.89H138.896V65.42H143.27V65.492C143.27 66.296 143.072 67.004 142.676 67.616C142.292 68.228 141.77 68.708 141.11 69.056C140.462 69.404 139.73 69.578 138.914 69.578C137.978 69.578 137.144 69.356 136.412 68.912C135.692 68.468 135.122 67.85 134.702 67.058C134.294 66.266 134.09 65.348 134.09 64.304C134.09 63.248 134.294 62.324 134.702 61.532C135.11 60.74 135.674 60.122 136.394 59.678C137.126 59.234 137.96 59.012 138.896 59.012C139.832 59.012 140.636 59.24 141.308 59.696C141.98 60.152 142.466 60.77 142.766 61.55L144.35 60.776C144.134 60.188 143.768 59.636 143.252 59.12C142.748 58.604 142.124 58.184 141.38 57.86C140.648 57.536 139.82 57.374 138.896 57.374C137.948 57.374 137.072 57.548 136.268 57.896C135.476 58.232 134.78 58.712 134.18 59.336C133.592 59.96 133.136 60.692 132.812 61.532C132.488 62.372 132.326 63.296 132.326 64.304C132.326 65.3 132.488 66.224 132.812 67.076C133.148 67.916 133.61 68.648 134.198 69.272C134.786 69.884 135.482 70.364 136.286 70.712C137.09 71.048 137.966 71.216 138.914 71.216ZM147.236 71H148.91V65.222C148.91 64.442 149.12 63.842 149.54 63.422C149.96 62.99 150.512 62.774 151.196 62.774H152.042V61.19H151.448C150.848 61.19 150.332 61.298 149.9 61.514C149.468 61.718 149.126 62.03 148.874 62.45V61.298H147.236V71ZM158.137 71.216C159.049 71.216 159.883 71 160.639 70.568C161.395 70.136 161.995 69.536 162.439 68.768C162.895 68 163.123 67.124 163.123 66.14C163.123 65.168 162.901 64.304 162.457 63.548C162.025 62.78 161.431 62.18 160.675 61.748C159.919 61.304 159.073 61.082 158.137 61.082C157.189 61.082 156.337 61.304 155.581 61.748C154.825 62.18 154.225 62.78 153.781 63.548C153.349 64.304 153.133 65.168 153.133 66.14C153.133 67.112 153.355 67.982 153.799 68.75C154.243 69.518 154.843 70.124 155.599 70.568C156.355 71 157.201 71.216 158.137 71.216ZM158.137 69.596C157.525 69.596 156.973 69.446 156.481 69.146C156.001 68.846 155.617 68.438 155.329 67.922C155.041 67.394 154.897 66.8 154.897 66.14C154.897 65.48 155.041 64.892 155.329 64.376C155.617 63.86 156.001 63.452 156.481 63.152C156.973 62.852 157.525 62.702 158.137 62.702C158.737 62.702 159.277 62.852 159.757 63.152C160.249 63.452 160.633 63.86 160.909 64.376C161.197 64.892 161.341 65.48 161.341 66.14C161.341 66.8 161.197 67.394 160.909 67.922C160.633 68.438 160.249 68.846 159.757 69.146C159.277 69.446 158.737 69.596 158.137 69.596ZM168.745 71.216C169.345 71.216 169.885 71.096 170.365 70.856C170.845 70.604 171.229 70.256 171.517 69.812V71H173.155V61.298H171.463V67.04C171.463 67.832 171.241 68.456 170.797 68.912C170.365 69.368 169.807 69.596 169.123 69.596C168.427 69.596 167.863 69.38 167.431 68.948C166.999 68.504 166.783 67.916 166.783 67.184V61.298H165.109V67.364C165.109 68.12 165.265 68.792 165.577 69.38C165.889 69.956 166.315 70.406 166.855 70.73C167.407 71.054 168.037 71.216 168.745 71.216ZM175.748 71H177.422V65.258C177.422 64.466 177.644 63.842 178.088 63.386C178.532 62.93 179.096 62.702 179.78 62.702C180.464 62.702 181.022 62.93 181.454 63.386C181.886 63.83 182.102 64.454 182.102 65.258V71H183.794V64.718C183.794 64.022 183.632 63.404 183.308 62.864C182.996 62.312 182.564 61.88 182.012 61.568C181.472 61.244 180.854 61.082 180.158 61.082C179.558 61.082 179.018 61.208 178.538 61.46C178.058 61.7 177.674 62.042 177.386 62.486V61.298H175.748V71ZM190.6 71.216C191.32 71.216 191.974 71.078 192.562 70.802C193.162 70.514 193.642 70.106 194.002 69.578V71H195.64V57.374H193.948V62.594C193.576 62.114 193.102 61.742 192.526 61.478C191.95 61.214 191.308 61.082 190.6 61.082C189.688 61.082 188.866 61.304 188.134 61.748C187.414 62.192 186.844 62.798 186.424 63.566C186.004 64.322 185.794 65.186 185.794 66.158C185.794 67.118 186.004 67.982 186.424 68.75C186.844 69.506 187.414 70.106 188.134 70.55C188.866 70.994 189.688 71.216 190.6 71.216ZM190.744 69.596C190.132 69.596 189.586 69.446 189.106 69.146C188.626 68.846 188.248 68.438 187.972 67.922C187.696 67.394 187.558 66.806 187.558 66.158C187.558 65.498 187.696 64.91 187.972 64.394C188.248 63.866 188.626 63.452 189.106 63.152C189.598 62.852 190.144 62.702 190.744 62.702C191.356 62.702 191.902 62.858 192.382 63.17C192.862 63.47 193.24 63.878 193.516 64.394C193.804 64.91 193.948 65.498 193.948 66.158C193.948 66.806 193.804 67.394 193.516 67.922C193.24 68.438 192.862 68.846 192.382 69.146C191.902 69.446 191.356 69.596 190.744 69.596ZM204.816 71.216C205.512 71.216 206.124 71.096 206.652 70.856C207.18 70.616 207.594 70.286 207.894 69.866C208.194 69.434 208.344 68.942 208.344 68.39C208.344 67.718 208.122 67.142 207.678 66.662C207.234 66.182 206.622 65.828 205.842 65.6L204.258 65.132C204.066 65.072 203.868 65 203.664 64.916C203.46 64.82 203.286 64.688 203.142 64.52C202.998 64.34 202.926 64.112 202.926 63.836C202.926 63.452 203.07 63.14 203.358 62.9C203.658 62.66 204.048 62.54 204.528 62.54C205.056 62.54 205.536 62.69 205.968 62.99C206.412 63.278 206.742 63.674 206.958 64.178L208.326 63.548C208.038 62.768 207.552 62.162 206.868 61.73C206.196 61.298 205.434 61.082 204.582 61.082C203.946 61.082 203.37 61.202 202.854 61.442C202.35 61.682 201.948 62.018 201.648 62.45C201.36 62.87 201.216 63.368 201.216 63.944C201.216 64.568 201.414 65.12 201.81 65.6C202.218 66.068 202.86 66.422 203.736 66.662L205.194 67.076C205.398 67.124 205.608 67.202 205.824 67.31C206.052 67.406 206.244 67.544 206.4 67.724C206.568 67.892 206.652 68.12 206.652 68.408C206.652 68.816 206.478 69.146 206.13 69.398C205.782 69.65 205.344 69.776 204.816 69.776C204.228 69.776 203.694 69.614 203.214 69.29C202.734 68.954 202.356 68.492 202.08 67.904L200.748 68.552C201.048 69.368 201.558 70.016 202.278 70.496C202.998 70.976 203.844 71.216 204.816 71.216ZM210.535 71H212.209V65.258C212.209 64.466 212.431 63.842 212.875 63.386C213.331 62.93 213.895 62.702 214.567 62.702C215.239 62.702 215.791 62.93 216.223 63.386C216.667 63.83 216.889 64.454 216.889 65.258V71H218.581V64.718C218.581 64.022 218.419 63.404 218.095 62.864C217.783 62.312 217.351 61.88 216.799 61.568C216.259 61.244 215.641 61.082 214.945 61.082C214.357 61.082 213.823 61.202 213.343 61.442C212.875 61.67 212.497 62 212.209 62.432V57.374H210.535V71ZM220.977 59.75H222.651V57.59H220.977V59.75ZM220.977 71H222.651V61.298H220.977V71ZM225.248 74.6H226.922V69.65C227.294 70.154 227.768 70.544 228.344 70.82C228.932 71.084 229.574 71.216 230.27 71.216C231.194 71.216 232.016 70.994 232.736 70.55C233.468 70.106 234.044 69.506 234.464 68.75C234.884 67.982 235.094 67.118 235.094 66.158C235.094 65.186 234.884 64.322 234.464 63.566C234.044 62.798 233.474 62.192 232.754 61.748C232.034 61.304 231.212 61.082 230.288 61.082C229.556 61.082 228.896 61.226 228.308 61.514C227.732 61.79 227.258 62.174 226.886 62.666V61.298H225.248V74.6ZM230.144 69.596C229.544 69.596 228.998 69.446 228.506 69.146C228.014 68.846 227.624 68.438 227.336 67.922C227.06 67.394 226.922 66.806 226.922 66.158C226.922 65.498 227.06 64.91 227.336 64.394C227.624 63.878 228.014 63.47 228.506 63.17C228.998 62.858 229.544 62.702 230.144 62.702C230.756 62.702 231.296 62.852 231.764 63.152C232.244 63.452 232.622 63.866 232.898 64.394C233.174 64.91 233.312 65.498 233.312 66.158C233.312 66.806 233.174 67.394 232.898 67.922C232.622 68.438 232.244 68.846 231.764 69.146C231.296 69.446 230.756 69.596 230.144 69.596ZM237.289 74.6H238.963V69.65C239.335 70.154 239.809 70.544 240.385 70.82C240.973 71.084 241.615 71.216 242.311 71.216C243.235 71.216 244.057 70.994 244.777 70.55C245.509 70.106 246.085 69.506 246.505 68.75C246.925 67.982 247.135 67.118 247.135 66.158C247.135 65.186 246.925 64.322 246.505 63.566C246.085 62.798 245.515 62.192 244.795 61.748C244.075 61.304 243.253 61.082 242.329 61.082C241.597 61.082 240.937 61.226 240.349 61.514C239.773 61.79 239.299 62.174 238.927 62.666V61.298H237.289V74.6ZM242.185 69.596C241.585 69.596 241.039 69.446 240.547 69.146C240.055 68.846 239.665 68.438 239.377 67.922C239.101 67.394 238.963 66.806 238.963 66.158C238.963 65.498 239.101 64.91 239.377 64.394C239.665 63.878 240.055 63.47 240.547 63.17C241.039 62.858 241.585 62.702 242.185 62.702C242.797 62.702 243.337 62.852 243.805 63.152C244.285 63.452 244.663 63.866 244.939 64.394C245.215 64.91 245.353 65.498 245.353 66.158C245.353 66.806 245.215 67.394 244.939 67.922C244.663 68.438 244.285 68.846 243.805 69.146C243.337 69.446 242.797 69.596 242.185 69.596ZM249.33 59.75H251.004V57.59H249.33V59.75ZM249.33 71H251.004V61.298H249.33V71ZM253.602 71H255.276V65.258C255.276 64.466 255.498 63.842 255.942 63.386C256.386 62.93 256.95 62.702 257.634 62.702C258.318 62.702 258.876 62.93 259.308 63.386C259.74 63.83 259.956 64.454 259.956 65.258V71H261.648V64.718C261.648 64.022 261.486 63.404 261.162 62.864C260.85 62.312 260.418 61.88 259.866 61.568C259.326 61.244 258.708 61.082 258.012 61.082C257.412 61.082 256.872 61.208 256.392 61.46C255.912 61.7 255.528 62.042 255.24 62.486V61.298H253.602V71ZM268.669 74.96C269.569 74.96 270.367 74.768 271.063 74.384C271.771 74.012 272.323 73.496 272.719 72.836C273.115 72.176 273.313 71.426 273.313 70.586V61.298H271.675V62.648C271.291 62.156 270.817 61.772 270.253 61.496C269.689 61.22 269.065 61.082 268.381 61.082C267.469 61.082 266.653 61.298 265.933 61.73C265.225 62.15 264.667 62.726 264.259 63.458C263.851 64.19 263.647 65.012 263.647 65.924C263.647 66.836 263.851 67.658 264.259 68.39C264.679 69.122 265.243 69.704 265.951 70.136C266.671 70.556 267.487 70.766 268.399 70.766C269.059 70.766 269.671 70.634 270.235 70.37C270.799 70.106 271.261 69.728 271.621 69.236V70.586C271.621 71.174 271.483 71.672 271.207 72.08C270.943 72.5 270.589 72.812 270.145 73.016C269.701 73.232 269.203 73.34 268.651 73.34C267.931 73.34 267.331 73.178 266.851 72.854C266.383 72.542 266.065 72.158 265.897 71.702L264.331 72.422C264.655 73.178 265.201 73.79 265.969 74.258C266.737 74.726 267.637 74.96 268.669 74.96ZM268.543 69.146C267.943 69.146 267.403 69.002 266.923 68.714C266.455 68.426 266.083 68.042 265.807 67.562C265.543 67.07 265.411 66.524 265.411 65.924C265.411 65.324 265.549 64.784 265.825 64.304C266.101 63.812 266.473 63.422 266.941 63.134C267.421 62.846 267.955 62.702 268.543 62.702C269.119 62.702 269.641 62.846 270.109 63.134C270.577 63.422 270.943 63.812 271.207 64.304C271.483 64.784 271.621 65.324 271.621 65.924C271.621 66.512 271.483 67.052 271.207 67.544C270.943 68.036 270.577 68.426 270.109 68.714C269.641 69.002 269.119 69.146 268.543 69.146Z" fill="#363636"/>
</g>
<defs>
<filter id="filter0_d_1_3800" x="0" y="0" width="380" height="113" filterUnits="userSpaceOnUse" color-interpolation-filters="sRGB">
<feFlood flood-opacity="0" result="BackgroundImageFix"/>
<feColorMatrix in="SourceAlpha" type="matrix" values="0 0 0 0 0 0 0 0 0 0 0 0 0 0 0 0 0 0 127 0" result="hardAlpha"/>
<feOffset dy="8"/>
<feGaussianBlur stdDeviation="10"/>
<feComposite in2="hardAlpha" operator="out"/>
<feColorMatrix type="matrix" values="0 0 0 0 0 0 0 0 0 0 0 0 0 0 0 0 0 0 0.15 0"/>
<feBlend mode="normal" in2="BackgroundImageFix" result="effect1_dropShadow_1_3800"/>
<feBlend mode="normal" in="SourceGraphic" in2="effect1_dropShadow_1_3800" result="shape"/>
</filter>
<linearGradient id="paint0_linear_1_3800" x1="190" y1="12" x2="190" y2="85" gradientUnits="userSpaceOnUse">
<stop stop-color="#FFE600"/>
<stop offset="1" stop-color="#FFC700"/>
</linearGradient>
</defs>
</svg>
