<svg width="340" height="73" viewBox="0 0 340 73" fill="none" xmlns="http://www.w3.org/2000/svg">
<rect width="340" height="73" rx="15" fill="#FFD800"/>
<path d="M103.27 37H112.09C114.517 37 116.411 36.4307 117.774 35.292C119.137 34.1533 119.818 32.5573 119.818 30.504C119.818 29.5893 119.65 28.7307 119.314 27.928C118.997 27.1067 118.381 26.3787 117.466 25.744C117.989 25.24 118.362 24.6893 118.586 24.092C118.829 23.4947 118.95 22.8787 118.95 22.244C118.95 20.3213 118.343 18.828 117.13 17.764C115.935 16.6813 114.255 16.14 112.09 16.14H103.27V37ZM107.61 23.98V19.78H112.398C113.07 19.78 113.602 19.976 113.994 20.368C114.405 20.7413 114.61 21.2453 114.61 21.88C114.61 22.5147 114.405 23.028 113.994 23.42C113.602 23.7933 113.07 23.98 112.398 23.98H107.61ZM107.61 33.22V27.76H112.594C113.471 27.76 114.171 28.012 114.694 28.516C115.217 29.02 115.478 29.6827 115.478 30.504C115.478 31.3067 115.217 31.96 114.694 32.464C114.171 32.968 113.471 33.22 112.594 33.22H107.61ZM130.89 37.336C132.533 37.336 133.998 36.9907 135.286 36.3C136.574 35.6093 137.582 34.6667 138.31 33.472C139.057 32.2587 139.43 30.8867 139.43 29.356V16.14H135.09V29.076C135.09 29.8973 134.903 30.644 134.53 31.316C134.175 31.9693 133.681 32.4827 133.046 32.856C132.43 33.2293 131.711 33.416 130.89 33.416C130.087 33.416 129.369 33.2293 128.734 32.856C128.099 32.4827 127.595 31.9693 127.222 31.316C126.867 30.644 126.69 29.8973 126.69 29.076V16.14H122.35V29.356C122.35 30.8867 122.714 32.2587 123.442 33.472C124.189 34.6667 125.206 35.6093 126.494 36.3C127.782 36.9907 129.247 37.336 130.89 37.336ZM148.268 37H152.608V27.872L159.524 16.14H154.568L150.424 23.448L146.28 16.14H141.324L148.268 27.9V37ZM166.707 37H171.047V24.316L180.427 37H183.787V16.14H179.447V28.544L170.039 16.14H166.707V37ZM197.933 37.336C199.501 37.336 200.957 37.0653 202.301 36.524C203.645 35.9827 204.811 35.2267 205.801 34.256C206.809 33.2667 207.593 32.1187 208.153 30.812C208.713 29.5053 208.993 28.0867 208.993 26.556C208.993 25.0253 208.713 23.6067 208.153 22.3C207.611 20.9933 206.837 19.8547 205.829 18.884C204.839 17.9133 203.673 17.1573 202.329 16.616C200.985 16.0747 199.519 15.804 197.933 15.804C196.346 15.804 194.881 16.0747 193.537 16.616C192.193 17.1573 191.017 17.9133 190.009 18.884C189.019 19.8547 188.245 20.9933 187.685 22.3C187.143 23.6067 186.873 25.0253 186.873 26.556C186.873 28.0867 187.153 29.5053 187.713 30.812C188.273 32.1187 189.047 33.2667 190.037 34.256C191.045 35.2267 192.221 35.9827 193.565 36.524C194.909 37.0653 196.365 37.336 197.933 37.336ZM197.933 33.416C196.663 33.416 195.515 33.1267 194.489 32.548C193.481 31.9507 192.678 31.1387 192.081 30.112C191.502 29.0853 191.213 27.9 191.213 26.556C191.213 25.212 191.502 24.0267 192.081 23C192.678 21.9733 193.481 21.1707 194.489 20.592C195.515 20.0133 196.663 19.724 197.933 19.724C199.202 19.724 200.341 20.0133 201.349 20.592C202.375 21.1707 203.178 21.9733 203.757 23C204.354 24.0267 204.653 25.212 204.653 26.556C204.653 27.9 204.354 29.0853 203.757 30.112C203.178 31.1387 202.375 31.9507 201.349 32.548C200.341 33.1267 199.202 33.416 197.933 33.416ZM215.444 37H220.484L224.124 23L227.764 37H232.804L238.264 16.14H233.56L230.06 31.008L226.364 16.14H221.884L218.188 31.008L214.688 16.14H209.984L215.444 37Z" fill="#363636"/>
<path d="M90.6797 60.8H92.0297V59.198C92.7977 59.126 93.4757 58.928 94.0637 58.604C94.6517 58.268 95.1077 57.836 95.4317 57.308C95.7677 56.768 95.9357 56.156 95.9357 55.472C95.9357 53.72 94.8677 52.514 92.7317 51.854L92.0297 51.638V47.084C92.5577 47.228 93.0197 47.486 93.4157 47.858C93.8117 48.218 94.1177 48.686 94.3337 49.262L95.8457 48.632C95.5817 47.852 95.1137 47.174 94.4417 46.598C93.7817 46.01 92.9777 45.632 92.0297 45.464V43.79H90.6797V45.374C89.9237 45.422 89.2577 45.608 88.6817 45.932C88.1057 46.256 87.6497 46.694 87.3137 47.246C86.9897 47.786 86.8277 48.404 86.8277 49.1C86.8277 49.94 87.0857 50.684 87.6017 51.332C88.1177 51.98 88.8617 52.454 89.8337 52.754L90.6797 53.006V57.542C90.0197 57.41 89.4437 57.128 88.9517 56.696C88.4597 56.252 88.0817 55.67 87.8177 54.95L86.2877 55.58C86.5757 56.492 87.1037 57.284 87.8717 57.956C88.6517 58.616 89.5877 59.018 90.6797 59.162V60.8ZM90.4817 51.188C89.8457 50.984 89.3717 50.69 89.0597 50.306C88.7477 49.91 88.5917 49.472 88.5917 48.992C88.5917 48.416 88.7837 47.948 89.1677 47.588C89.5517 47.228 90.0557 47.024 90.6797 46.976V51.242L90.4817 51.188ZM92.2997 53.51C92.8997 53.69 93.3617 53.942 93.6857 54.266C94.0097 54.59 94.1717 55.034 94.1717 55.598C94.1717 56.15 93.9737 56.606 93.5777 56.966C93.1937 57.314 92.6777 57.524 92.0297 57.596V53.42L92.2997 53.51ZM102.424 59.216C103.312 59.216 104.098 59.024 104.782 58.64C105.478 58.244 106.024 57.71 106.42 57.038C106.828 56.366 107.032 55.61 107.032 54.77C107.032 53.942 106.846 53.192 106.474 52.52C106.102 51.848 105.586 51.32 104.926 50.936C104.266 50.54 103.498 50.342 102.622 50.342C102.178 50.342 101.758 50.396 101.362 50.504C100.966 50.612 100.594 50.786 100.246 51.026L100.804 47.12H106.492V45.59H99.5444L98.5184 52.916L99.9404 53.222C100.144 52.838 100.474 52.52 100.93 52.268C101.386 52.016 101.89 51.89 102.442 51.89C102.982 51.89 103.462 52.016 103.882 52.268C104.302 52.508 104.632 52.844 104.872 53.276C105.124 53.708 105.25 54.206 105.25 54.77C105.25 55.31 105.124 55.796 104.872 56.228C104.632 56.66 104.302 57.002 103.882 57.254C103.462 57.506 102.976 57.632 102.424 57.632C101.752 57.632 101.128 57.452 100.552 57.092C99.9884 56.72 99.5804 56.204 99.3284 55.544L97.8884 56.156C98.1044 56.78 98.4344 57.326 98.8784 57.794C99.3224 58.25 99.8504 58.604 100.462 58.856C101.074 59.096 101.728 59.216 102.424 59.216ZM118.914 59.216C119.742 59.216 120.528 59.072 121.272 58.784C122.016 58.496 122.67 58.082 123.234 57.542C123.798 57.002 124.242 56.36 124.566 55.616C124.89 54.86 125.052 54.014 125.052 53.078V51.89H118.896V53.42H123.27V53.492C123.27 54.296 123.072 55.004 122.676 55.616C122.292 56.228 121.77 56.708 121.11 57.056C120.462 57.404 119.73 57.578 118.914 57.578C117.978 57.578 117.144 57.356 116.412 56.912C115.692 56.468 115.122 55.85 114.702 55.058C114.294 54.266 114.09 53.348 114.09 52.304C114.09 51.248 114.294 50.324 114.702 49.532C115.11 48.74 115.674 48.122 116.394 47.678C117.126 47.234 117.96 47.012 118.896 47.012C119.832 47.012 120.636 47.24 121.308 47.696C121.98 48.152 122.466 48.77 122.766 49.55L124.35 48.776C124.134 48.188 123.768 47.636 123.252 47.12C122.748 46.604 122.124 46.184 121.38 45.86C120.648 45.536 119.82 45.374 118.896 45.374C117.948 45.374 117.072 45.548 116.268 45.896C115.476 46.232 114.78 46.712 114.18 47.336C113.592 47.96 113.136 48.692 112.812 49.532C112.488 50.372 112.326 51.296 112.326 52.304C112.326 53.3 112.488 54.224 112.812 55.076C113.148 55.916 113.61 56.648 114.198 57.272C114.786 57.884 115.482 58.364 116.286 58.712C117.09 59.048 117.966 59.216 118.914 59.216ZM127.236 59H128.91V53.222C128.91 52.442 129.12 51.842 129.54 51.422C129.96 50.99 130.512 50.774 131.196 50.774H132.042V49.19H131.448C130.848 49.19 130.332 49.298 129.9 49.514C129.468 49.718 129.126 50.03 128.874 50.45V49.298H127.236V59ZM138.137 59.216C139.049 59.216 139.883 59 140.639 58.568C141.395 58.136 141.995 57.536 142.439 56.768C142.895 56 143.123 55.124 143.123 54.14C143.123 53.168 142.901 52.304 142.457 51.548C142.025 50.78 141.431 50.18 140.675 49.748C139.919 49.304 139.073 49.082 138.137 49.082C137.189 49.082 136.337 49.304 135.581 49.748C134.825 50.18 134.225 50.78 133.781 51.548C133.349 52.304 133.133 53.168 133.133 54.14C133.133 55.112 133.355 55.982 133.799 56.75C134.243 57.518 134.843 58.124 135.599 58.568C136.355 59 137.201 59.216 138.137 59.216ZM138.137 57.596C137.525 57.596 136.973 57.446 136.481 57.146C136.001 56.846 135.617 56.438 135.329 55.922C135.041 55.394 134.897 54.8 134.897 54.14C134.897 53.48 135.041 52.892 135.329 52.376C135.617 51.86 136.001 51.452 136.481 51.152C136.973 50.852 137.525 50.702 138.137 50.702C138.737 50.702 139.277 50.852 139.757 51.152C140.249 51.452 140.633 51.86 140.909 52.376C141.197 52.892 141.341 53.48 141.341 54.14C141.341 54.8 141.197 55.394 140.909 55.922C140.633 56.438 140.249 56.846 139.757 57.146C139.277 57.446 138.737 57.596 138.137 57.596ZM148.745 59.216C149.345 59.216 149.885 59.096 150.365 58.856C150.845 58.604 151.229 58.256 151.517 57.812V59H153.155V49.298H151.463V55.04C151.463 55.832 151.241 56.456 150.797 56.912C150.365 57.368 149.807 57.596 149.123 57.596C148.427 57.596 147.863 57.38 147.431 56.948C146.999 56.504 146.783 55.916 146.783 55.184V49.298H145.109V55.364C145.109 56.12 145.265 56.792 145.577 57.38C145.889 57.956 146.315 58.406 146.855 58.73C147.407 59.054 148.037 59.216 148.745 59.216ZM155.748 59H157.422V53.258C157.422 52.466 157.644 51.842 158.088 51.386C158.532 50.93 159.096 50.702 159.78 50.702C160.464 50.702 161.022 50.93 161.454 51.386C161.886 51.83 162.102 52.454 162.102 53.258V59H163.794V52.718C163.794 52.022 163.632 51.404 163.308 50.864C162.996 50.312 162.564 49.88 162.012 49.568C161.472 49.244 160.854 49.082 160.158 49.082C159.558 49.082 159.018 49.208 158.538 49.46C158.058 49.7 157.674 50.042 157.386 50.486V49.298H155.748V59ZM170.6 59.216C171.32 59.216 171.974 59.078 172.562 58.802C173.162 58.514 173.642 58.106 174.002 57.578V59H175.64V45.374H173.948V50.594C173.576 50.114 173.102 49.742 172.526 49.478C171.95 49.214 171.308 49.082 170.6 49.082C169.688 49.082 168.866 49.304 168.134 49.748C167.414 50.192 166.844 50.798 166.424 51.566C166.004 52.322 165.794 53.186 165.794 54.158C165.794 55.118 166.004 55.982 166.424 56.75C166.844 57.506 167.414 58.106 168.134 58.55C168.866 58.994 169.688 59.216 170.6 59.216ZM170.744 57.596C170.132 57.596 169.586 57.446 169.106 57.146C168.626 56.846 168.248 56.438 167.972 55.922C167.696 55.394 167.558 54.806 167.558 54.158C167.558 53.498 167.696 52.91 167.972 52.394C168.248 51.866 168.626 51.452 169.106 51.152C169.598 50.852 170.144 50.702 170.744 50.702C171.356 50.702 171.902 50.858 172.382 51.17C172.862 51.47 173.24 51.878 173.516 52.394C173.804 52.91 173.948 53.498 173.948 54.158C173.948 54.806 173.804 55.394 173.516 55.922C173.24 56.438 172.862 56.846 172.382 57.146C171.902 57.446 171.356 57.596 170.744 57.596ZM184.816 59.216C185.512 59.216 186.124 59.096 186.652 58.856C187.18 58.616 187.594 58.286 187.894 57.866C188.194 57.434 188.344 56.942 188.344 56.39C188.344 55.718 188.122 55.142 187.678 54.662C187.234 54.182 186.622 53.828 185.842 53.6L184.258 53.132C184.066 53.072 183.868 53 183.664 52.916C183.46 52.82 183.286 52.688 183.142 52.52C182.998 52.34 182.926 52.112 182.926 51.836C182.926 51.452 183.07 51.14 183.358 50.9C183.658 50.66 184.048 50.54 184.528 50.54C185.056 50.54 185.536 50.69 185.968 50.99C186.412 51.278 186.742 51.674 186.958 52.178L188.326 51.548C188.038 50.768 187.552 50.162 186.868 49.73C186.196 49.298 185.434 49.082 184.582 49.082C183.946 49.082 183.37 49.202 182.854 49.442C182.35 49.682 181.948 50.018 181.648 50.45C181.36 50.87 181.216 51.368 181.216 51.944C181.216 52.568 181.414 53.12 181.81 53.6C182.218 54.068 182.86 54.422 183.736 54.662L185.194 55.076C185.398 55.124 185.608 55.202 185.824 55.31C186.052 55.406 186.244 55.544 186.4 55.724C186.568 55.892 186.652 56.12 186.652 56.408C186.652 56.816 186.478 57.146 186.13 57.398C185.782 57.65 185.344 57.776 184.816 57.776C184.228 57.776 183.694 57.614 183.214 57.29C182.734 56.954 182.356 56.492 182.08 55.904L180.748 56.552C181.048 57.368 181.558 58.016 182.278 58.496C182.998 58.976 183.844 59.216 184.816 59.216ZM190.535 59H192.209V53.258C192.209 52.466 192.431 51.842 192.875 51.386C193.331 50.93 193.895 50.702 194.567 50.702C195.239 50.702 195.791 50.93 196.223 51.386C196.667 51.83 196.889 52.454 196.889 53.258V59H198.581V52.718C198.581 52.022 198.419 51.404 198.095 50.864C197.783 50.312 197.351 49.88 196.799 49.568C196.259 49.244 195.641 49.082 194.945 49.082C194.357 49.082 193.823 49.202 193.343 49.442C192.875 49.67 192.497 50 192.209 50.432V45.374H190.535V59ZM200.977 47.75H202.651V45.59H200.977V47.75ZM200.977 59H202.651V49.298H200.977V59ZM205.248 62.6H206.922V57.65C207.294 58.154 207.768 58.544 208.344 58.82C208.932 59.084 209.574 59.216 210.27 59.216C211.194 59.216 212.016 58.994 212.736 58.55C213.468 58.106 214.044 57.506 214.464 56.75C214.884 55.982 215.094 55.118 215.094 54.158C215.094 53.186 214.884 52.322 214.464 51.566C214.044 50.798 213.474 50.192 212.754 49.748C212.034 49.304 211.212 49.082 210.288 49.082C209.556 49.082 208.896 49.226 208.308 49.514C207.732 49.79 207.258 50.174 206.886 50.666V49.298H205.248V62.6ZM210.144 57.596C209.544 57.596 208.998 57.446 208.506 57.146C208.014 56.846 207.624 56.438 207.336 55.922C207.06 55.394 206.922 54.806 206.922 54.158C206.922 53.498 207.06 52.91 207.336 52.394C207.624 51.878 208.014 51.47 208.506 51.17C208.998 50.858 209.544 50.702 210.144 50.702C210.756 50.702 211.296 50.852 211.764 51.152C212.244 51.452 212.622 51.866 212.898 52.394C213.174 52.91 213.312 53.498 213.312 54.158C213.312 54.806 213.174 55.394 212.898 55.922C212.622 56.438 212.244 56.846 211.764 57.146C211.296 57.446 210.756 57.596 210.144 57.596ZM217.289 62.6H218.963V57.65C219.335 58.154 219.809 58.544 220.385 58.82C220.973 59.084 221.615 59.216 222.311 59.216C223.235 59.216 224.057 58.994 224.777 58.55C225.509 58.106 226.085 57.506 226.505 56.75C226.925 55.982 227.135 55.118 227.135 54.158C227.135 53.186 226.925 52.322 226.505 51.566C226.085 50.798 225.515 50.192 224.795 49.748C224.075 49.304 223.253 49.082 222.329 49.082C221.597 49.082 220.937 49.226 220.349 49.514C219.773 49.79 219.299 50.174 218.927 50.666V49.298H217.289V62.6ZM222.185 57.596C221.585 57.596 221.039 57.446 220.547 57.146C220.055 56.846 219.665 56.438 219.377 55.922C219.101 55.394 218.963 54.806 218.963 54.158C218.963 53.498 219.101 52.91 219.377 52.394C219.665 51.878 220.055 51.47 220.547 51.17C221.039 50.858 221.585 50.702 222.185 50.702C222.797 50.702 223.337 50.852 223.805 51.152C224.285 51.452 224.663 51.866 224.939 52.394C225.215 52.91 225.353 53.498 225.353 54.158C225.353 54.806 225.215 55.394 224.939 55.922C224.663 56.438 224.285 56.846 223.805 57.146C223.337 57.446 222.797 57.596 222.185 57.596ZM229.33 47.75H231.004V45.59H229.33V47.75ZM229.33 59H231.004V49.298H229.33V59ZM233.602 59H235.276V53.258C235.276 52.466 235.498 51.842 235.942 51.386C236.386 50.93 236.95 50.702 237.634 50.702C238.318 50.702 238.876 50.93 239.308 51.386C239.74 51.83 239.956 52.454 239.956 53.258V59H241.648V52.718C241.648 52.022 241.486 51.404 241.162 50.864C240.85 50.312 240.418 49.88 239.866 49.568C239.326 49.244 238.708 49.082 238.012 49.082C237.412 49.082 236.872 49.208 236.392 49.46C235.912 49.7 235.528 50.042 235.24 50.486V49.298H233.602V59ZM248.669 62.96C249.569 62.96 250.367 62.768 251.063 62.384C251.771 62.012 252.323 61.496 252.719 60.836C253.115 60.176 253.313 59.426 253.313 58.586V49.298H251.675V50.648C251.291 50.156 250.817 49.772 250.253 49.496C249.689 49.22 249.065 49.082 248.381 49.082C247.469 49.082 246.653 49.298 245.933 49.73C245.225 50.15 244.667 50.726 244.259 51.458C243.851 52.19 243.647 53.012 243.647 53.924C243.647 54.836 243.851 55.658 244.259 56.39C244.679 57.122 245.243 57.704 245.951 58.136C246.671 58.556 247.487 58.766 248.399 58.766C249.059 58.766 249.671 58.634 250.235 58.37C250.799 58.106 251.261 57.728 251.621 57.236V58.586C251.621 59.174 251.483 59.672 251.207 60.08C250.943 60.5 250.589 60.812 250.145 61.016C249.701 61.232 249.203 61.34 248.651 61.34C247.931 61.34 247.331 61.178 246.851 60.854C246.383 60.542 246.065 60.158 245.897 59.702L244.331 60.422C244.655 61.178 245.201 61.79 245.969 62.258C246.737 62.726 247.637 62.96 248.669 62.96ZM248.543 57.146C247.943 57.146 247.403 57.002 246.923 56.714C246.455 56.426 246.083 56.042 245.807 55.562C245.543 55.07 245.411 54.524 245.411 53.924C245.411 53.324 245.549 52.784 245.825 52.304C246.101 51.812 246.473 51.422 246.941 51.134C247.421 50.846 247.955 50.702 248.543 50.702C249.119 50.702 249.641 50.846 250.109 51.134C250.577 51.422 250.943 51.812 251.207 52.304C251.483 52.784 251.621 53.324 251.621 53.924C251.621 54.512 251.483 55.052 251.207 55.544C250.943 56.036 250.577 56.426 250.109 56.714C249.641 57.002 249.119 57.146 248.543 57.146Z" fill="#363636"/>
</svg>
