<svg width="80" height="80" viewBox="0 0 80 80" fill="none" xmlns="http://www.w3.org/2000/svg">
<circle cx="40" cy="40" r="40" fill="white"/>
<path d="M40 58C39.7567 58 39.5285 57.9614 39.3156 57.8841C39.1027 57.8081 38.9049 57.6782 38.7224 57.4942L28.5019 47.1954C28.1673 46.8582 28 46.4365 28 45.9301C28 45.425 28.1673 44.9885 28.5019 44.6207C28.8669 44.2529 29.3001 44.069 29.8014 44.069C30.3039 44.069 30.7376 44.2529 31.1027 44.6207L38.1749 51.7471V23.8391C38.1749 23.318 38.3501 22.8809 38.7005 22.5278C39.0497 22.1759 39.4829 22 40 22C40.5171 22 40.9509 22.1759 41.3013 22.5278C41.6505 22.8809 41.8251 23.318 41.8251 23.8391V51.7471L48.943 44.6207C49.2776 44.2835 49.6955 44.107 50.1968 44.091C50.6993 44.0763 51.1331 44.2529 51.4981 44.6207C51.8327 44.9579 52 45.387 52 45.908C52 46.4291 51.8327 46.8582 51.4981 47.1954L41.2776 57.4942C41.0951 57.6782 40.8973 57.8081 40.6844 57.8841C40.4715 57.9614 40.2433 58 40 58Z" fill="#549663"/>
</svg>
