<svg width="80" height="80" viewBox="0 0 80 80" fill="none" xmlns="http://www.w3.org/2000/svg">
<circle cx="40" cy="40" r="38.5" stroke="#F0D8A8" stroke-width="3"/>
<path d="M48.335 25.1599L48.5275 25.5424L49.9675 29.3749C50.08 29.6749 50.3175 29.9149 50.62 30.0274L54.32 31.4174C55.945 32.0249 56.8175 33.7599 56.385 35.4024L56.28 35.7274L54.56 39.5349C54.4938 39.6801 54.4595 39.8379 54.4595 39.9974C54.4595 40.157 54.4938 40.3147 54.56 40.4599L56.195 44.0599C56.5371 44.8145 56.5874 45.6692 56.3362 46.4587C56.0851 47.2482 55.5502 47.9167 54.835 48.3349L54.4525 48.5274L50.62 49.9674C50.4715 50.0238 50.3367 50.1111 50.2246 50.2236C50.1126 50.3361 50.0258 50.4712 49.97 50.6199L48.58 54.3199C48.289 55.0968 47.7201 55.738 46.9835 56.1194C46.2468 56.5009 45.3949 56.5955 44.5925 56.3849L44.2675 56.2799L40.46 54.5599C40.3148 54.4937 40.1571 54.4595 39.9975 54.4595C39.8379 54.4595 39.6802 54.4937 39.535 54.5599L35.9375 56.1949C35.1829 56.537 34.3283 56.5873 33.5387 56.3362C32.7492 56.085 32.0807 55.5502 31.6625 54.8349L31.47 54.4524L30.0275 50.6199C29.9712 50.4715 29.8838 50.3367 29.7713 50.2246C29.6588 50.1125 29.5237 50.0257 29.375 49.9699L25.675 48.5799C24.8982 48.2889 24.257 47.72 23.8755 46.9834C23.494 46.2468 23.3994 45.3948 23.61 44.5924L23.715 44.2674L25.4375 40.4599C25.5035 40.3147 25.5377 40.157 25.5377 39.9974C25.5377 39.8379 25.5035 39.6802 25.4375 39.5349L23.8 35.9374C23.4577 35.1831 23.407 34.3287 23.6577 33.5392C23.9084 32.7497 24.4427 32.0811 25.1575 31.6624L25.54 31.4699L29.375 30.0249C29.5239 29.9689 29.6592 29.8817 29.7717 29.7692C29.8843 29.6567 29.9715 29.5214 30.0275 29.3724L31.4175 25.6724C31.7085 24.8962 32.277 24.2553 33.013 23.8739C33.7491 23.4925 34.6005 23.3975 35.4025 23.6074L35.7275 23.7124L39.535 25.4349C39.6802 25.501 39.8379 25.5351 39.9975 25.5351C40.157 25.5351 40.3147 25.501 40.46 25.4349L44.06 23.7999C44.8143 23.4576 45.6687 23.4069 46.4582 23.6576C47.2477 23.9083 47.9163 24.4427 48.335 25.1574V25.1599ZM45.41 34.2624L37.4425 43.3624L34.5375 40.4574C34.3264 40.2555 34.0447 40.1442 33.7526 40.1474C33.4605 40.1506 33.1813 40.2681 32.9747 40.4747C32.7682 40.6812 32.6507 40.9604 32.6475 41.2525C32.6443 41.5446 32.7555 41.8264 32.9575 42.0374L36.7075 45.7874C36.8157 45.8954 36.9449 45.98 37.0872 46.036C37.2294 46.0921 37.3816 46.1183 37.5344 46.1132C37.6872 46.108 37.8373 46.0716 37.9754 46.0061C38.1136 45.9406 38.2368 45.8475 38.3375 45.7324L47.0875 35.7324C47.2657 35.5075 47.3505 35.2227 47.3244 34.937C47.2983 34.6512 47.1634 34.3865 46.9474 34.1975C46.7315 34.0086 46.4511 33.9099 46.1645 33.922C45.8778 33.9341 45.6068 34.056 45.4075 34.2624H45.41Z" fill="#F0D8A8"/>
</svg>
