<svg width="80" height="80" viewBox="0 0 80 80" fill="none" xmlns="http://www.w3.org/2000/svg">
<circle cx="40" cy="40" r="38.5" stroke="#F0D8A8" stroke-width="3"/>
<path d="M32.6221 21.5063C33.4106 22.3449 33.9302 23.3562 34.2285 24.4483C34.7131 26.2223 34.6821 28.2099 34.5192 30.2369C34.1929 34.2911 33.3801 38.5581 34.3285 41.2062C35.2188 43.6917 36.6463 45.1679 38.2301 45.8937C38.9113 46.206 39.6285 46.3788 40.354 46.4235C42.088 41.3388 41.7181 34.8498 38.8649 30.4639C42.6424 34.2322 44.4267 39.9224 43.274 45.8863L42.5881 46.1621C42.8022 46.0982 43.0132 46.0241 43.2203 45.94C46.4846 44.6221 49.1559 40.764 48.0445 35.1076C47.5339 32.5088 45.7816 28.8447 42.8492 26.006C40.3124 23.5504 36.9252 21.6926 32.622 21.5065L32.6221 21.5063ZM54.807 35.8449C54.7414 36.7902 54.4447 37.683 53.982 38.4938C53.1732 39.911 51.9158 41.1311 50.5542 42.2902C47.8311 44.6081 44.6904 46.7555 43.6548 48.9478C42.6739 51.0246 42.6482 52.7956 43.1715 54.2043C43.395 54.8072 43.7296 55.3628 44.1578 55.8424C48.3538 53.7497 52.1055 49.5213 53.0492 45.0588C53.0552 49.7187 50.6563 54.3313 46.2817 57.3171C49.0788 58.4535 53.0225 57.7104 55.7911 53.5867C57.0738 51.676 58.2566 48.3288 58.1983 44.7683C58.1488 41.7458 57.2402 38.5785 54.8071 35.8451L54.807 35.8449ZM21.6138 41.5847C20.8729 45.1689 21.6691 48.3685 23.1372 51.011C24.8666 54.1235 27.5655 56.431 29.6313 57.444C34.0899 59.6306 37.8746 58.3009 39.729 55.9182C34.4485 55.5198 30.0656 52.725 27.7418 48.6867C30.7902 52.0795 36.1526 53.8656 40.8326 53.5793C40.9642 52.95 40.9767 52.3016 40.8693 51.6678C40.6182 50.1861 39.7076 48.6641 37.8199 47.3562C35.8274 45.9757 32.0352 45.6874 28.5181 45.0417C26.7597 44.7191 25.0613 44.2925 23.6525 43.4696C22.846 42.9985 22.1436 42.3711 21.6139 41.5848L21.6138 41.5847Z" fill="#F0D8A8"/>
</svg>
