<svg width="80" height="80" viewBox="0 0 80 80" fill="none" xmlns="http://www.w3.org/2000/svg">
<circle cx="40" cy="40" r="38.5" stroke="#F0D8A8" stroke-width="3"/>
<g clip-path="url(#clip0_1_1029)">
<path d="M35.3846 21.5386C32.8538 21.5386 30.7692 23.6232 30.7692 26.154V29.2309H33.8462V26.154C33.8462 25.2878 34.5185 24.6155 35.3846 24.6155H44.6154C45.4815 24.6155 46.1538 25.2878 46.1538 26.154V29.2309H49.2308V26.154C49.2308 23.6232 47.1462 21.5386 44.6154 21.5386H35.3846ZM24.6154 30.7693C23.3913 30.7693 22.2174 31.2556 21.3518 32.1212C20.4863 32.9867 20 34.1607 20 35.3847V53.8463C20 55.0703 20.4863 56.2443 21.3518 57.1098C22.2174 57.9754 23.3913 58.4617 24.6154 58.4617H55.3846C57.9323 58.4617 60 56.394 60 53.8463V35.3847C60 34.1607 59.5137 32.9867 58.6482 32.1212C57.7826 31.2556 56.6087 30.7693 55.3846 30.7693H24.6154ZM40 35.2401C41.2315 35.2391 42.4511 35.4809 43.589 35.9517C44.7269 36.4225 45.7609 37.1131 46.6317 37.9838C47.5024 38.8546 48.193 39.8886 48.6638 41.0265C49.1346 42.1644 49.3764 43.384 49.3754 44.6155C49.3764 45.847 49.1346 47.0666 48.6638 48.2045C48.193 49.3424 47.5024 50.3764 46.6317 51.2472C45.7609 52.1179 44.7269 52.8085 43.589 53.2793C42.4511 53.7501 41.2315 53.9919 40 53.9909C38.7685 53.9919 37.5489 53.7501 36.411 53.2793C35.2731 52.8085 34.2391 52.1179 33.3683 51.2472C32.4976 50.3764 31.807 49.3424 31.3362 48.2045C30.8654 47.0666 30.6236 45.847 30.6246 44.6155C30.6236 43.384 30.8654 42.1644 31.3362 41.0265C31.807 39.8886 32.4976 38.8546 33.3683 37.9838C34.2391 37.1131 35.2731 36.4225 36.411 35.9517C37.5489 35.4809 38.7685 35.2391 40 35.2401ZM38.4615 40.0001V43.077H35.3846V46.154H38.4615V49.2309H41.5385V46.154H44.6154V43.077H41.5385V40.0001H38.4615Z" fill="#F0D8A8"/>
</g>
<defs>
<clipPath id="clip0_1_1029">
<rect width="40" height="40" fill="white" transform="translate(20 20)"/>
</clipPath>
</defs>
</svg>
