<svg width="17" height="16" viewBox="0 0 17 16" fill="none" xmlns="http://www.w3.org/2000/svg">
<path d="M16.2146 6.06834C16.0802 5.66521 15.7443 5.37966 15.3244 5.32927L11.1419 4.72459L9.27749 0.945288C8.90796 0.206226 7.68179 0.206226 7.31226 0.945288L5.44781 4.72459L1.28218 5.32927C0.862259 5.39646 0.526321 5.68201 0.391946 6.06834C0.257571 6.47146 0.375149 6.89138 0.660696 7.19373L3.68413 10.15L2.97866 14.3156C2.91148 14.7187 3.07945 15.1386 3.41538 15.3906C3.75132 15.6426 4.20484 15.6594 4.57437 15.4746L8.30327 13.5093L12.049 15.4746C12.2169 15.5586 12.3849 15.609 12.5529 15.609C12.7712 15.609 13.0064 15.5418 13.1912 15.4074C13.5271 15.1554 13.6951 14.7523 13.6279 14.3324L12.9224 10.1668L15.9459 7.21052C16.2482 6.90818 16.349 6.47146 16.2146 6.06834Z" fill="#FFD800"/>
</svg>
