<svg width="30" height="30" viewBox="0 0 30 30" fill="none" xmlns="http://www.w3.org/2000/svg">
<path d="M29.8125 12.4875C29.8875 12.9125 29.9375 13.331 29.9625 13.743C29.9875 14.156 30 14.575 30 15C30 17.075 29.606 19.025 28.818 20.85C28.031 22.675 26.9625 24.2625 25.6125 25.6125C24.2625 26.9625 22.675 28.031 20.85 28.818C19.025 29.606 17.075 30 15 30C12.925 30 10.975 29.606 9.15 28.818C7.325 28.031 5.7375 26.9625 4.3875 25.6125C3.0375 24.2625 1.969 22.675 1.182 20.85C0.394 19.025 0 17.075 0 15C0 12.925 0.394 10.975 1.182 9.15C1.969 7.325 3.0375 5.7375 4.3875 4.3875C5.7375 3.0375 7.325 1.9685 9.15 1.1805C10.975 0.3935 12.925 0 15 0C16.275 0 17.5065 0.156 18.6945 0.468C19.8815 0.781 21 1.2125 22.05 1.7625C22.425 1.9625 22.6565 2.2685 22.7445 2.6805C22.8315 3.0935 22.7375 3.475 22.4625 3.825C22.2125 4.15 21.8875 4.3625 21.4875 4.4625C21.0875 4.5625 20.7125 4.5125 20.3625 4.3125C19.5625 3.8875 18.7065 3.5625 17.7945 3.3375C16.8815 3.1125 15.95 3 15 3C11.675 3 8.844 4.1685 6.507 6.5055C4.169 8.8435 3 11.675 3 15C3 18.325 4.169 21.1565 6.507 23.4945C8.844 25.8315 11.675 27 15 27C18.325 27 21.1565 25.8315 23.4945 23.4945C25.8315 21.1565 27 18.325 27 15C27 14.675 26.9875 14.356 26.9625 14.043C26.9375 13.731 26.9 13.4125 26.85 13.0875C26.8 12.7375 26.8565 12.4125 27.0195 12.1125C27.1815 11.8125 27.4125 11.575 27.7125 11.4C28.1375 11.15 28.569 11.1435 29.007 11.3805C29.444 11.6185 29.7125 11.9875 29.8125 12.4875ZM11.85 20.85L7.5375 16.5375C7.2625 16.2625 7.1315 15.9185 7.1445 15.5055C7.1565 15.0935 7.3 14.75 7.575 14.475C7.85 14.2 8.2 14.0625 8.625 14.0625C9.05 14.0625 9.4 14.2 9.675 14.475L12.9 17.7L26.8875 3.675C27.1625 3.4 27.5065 3.2685 27.9195 3.2805C28.3315 3.2935 28.675 3.4375 28.95 3.7125C29.225 3.9875 29.3625 4.3375 29.3625 4.7625C29.3625 5.1875 29.225 5.5375 28.95 5.8125L13.95 20.85C13.675 21.125 13.325 21.2625 12.9 21.2625C12.475 21.2625 12.125 21.125 11.85 20.85Z" fill="#549663"/>
</svg>
