<svg width="84" height="64" viewBox="0 0 84 64" fill="none" xmlns="http://www.w3.org/2000/svg">
<path d="M19.0833 25.6666C18.1542 25.6666 17.2625 25.8083 16.375 25.9375C16.6625 24.9708 16.9583 23.9875 17.4333 23.1041C17.9083 21.8208 18.65 20.7083 19.3875 19.5875C20.0042 18.375 21.0917 17.5541 21.8917 16.5166C22.7292 15.5083 23.8708 14.8375 24.775 14C25.6625 13.125 26.825 12.6875 27.75 12.0708C28.7167 11.5166 29.5583 10.9041 30.4583 10.6125L32.7042 9.68746L34.6792 8.86662L32.6583 0.791626L30.1708 1.39162C29.375 1.59162 28.4042 1.82496 27.3 2.10412C26.1708 2.31246 24.9667 2.88329 23.625 3.40413C22.3 3.99579 20.7667 4.39579 19.3417 5.34579C17.9083 6.25413 16.2542 7.01246 14.7958 8.22913C13.3833 9.48329 11.6792 10.5708 10.4208 12.1666C9.04583 13.6583 7.6875 15.225 6.63333 17.0083C5.4125 18.7083 4.58333 20.575 3.70833 22.4208C2.91666 24.2666 2.27916 26.1541 1.75833 27.9875C0.770828 31.6625 0.329161 35.1541 0.158328 38.1416C0.0166614 41.1333 0.0999947 43.6208 0.274995 45.4208C0.337495 46.2708 0.454162 47.0958 0.537495 47.6666L0.641661 48.3666L0.749995 48.3416C1.49108 51.8034 3.19709 54.9847 5.67068 57.5174C8.14426 60.0501 11.2843 61.8308 14.7277 62.6534C18.171 63.476 21.7769 63.307 25.1281 62.1659C28.4794 61.0248 31.4392 58.9583 33.665 56.2053C35.8909 53.4523 37.2919 50.1255 37.7059 46.6095C38.1199 43.0936 37.5301 39.5323 36.0047 36.3375C34.4793 33.1428 32.0806 30.4452 29.086 28.5568C26.0915 26.6684 22.6236 25.6664 19.0833 25.6666V25.6666ZM64.9167 25.6666C63.9875 25.6666 63.0958 25.8083 62.2083 25.9375C62.4958 24.9708 62.7917 23.9875 63.2667 23.1041C63.7417 21.8208 64.4833 20.7083 65.2208 19.5875C65.8375 18.375 66.925 17.5541 67.725 16.5166C68.5625 15.5083 69.7042 14.8375 70.6083 14C71.4958 13.125 72.6583 12.6875 73.5833 12.0708C74.55 11.5166 75.3917 10.9041 76.2917 10.6125L78.5375 9.68746L80.5125 8.86662L78.4917 0.791626L76.0042 1.39162C75.2083 1.59162 74.2375 1.82496 73.1333 2.10412C72.0042 2.31246 70.8 2.88329 69.4583 3.40413C68.1375 3.99996 66.6 4.39579 65.175 5.34996C63.7417 6.25829 62.0875 7.01662 60.6292 8.23329C59.2167 9.48746 57.5125 10.575 56.2542 12.1666C54.8792 13.6583 53.5208 15.225 52.4667 17.0083C51.2458 18.7083 50.4167 20.575 49.5417 22.4208C48.75 24.2666 48.1125 26.1541 47.5917 27.9875C46.6042 31.6625 46.1625 35.1541 45.9917 38.1416C45.85 41.1333 45.9333 43.6208 46.1083 45.4208C46.1708 46.2708 46.2875 47.0958 46.3708 47.6666L46.475 48.3666L46.5833 48.3416C47.3244 51.8034 49.0304 54.9847 51.504 57.5174C53.9776 60.0501 57.1177 61.8308 60.561 62.6534C64.0043 63.476 67.6102 63.307 70.9615 62.1659C74.3128 61.0248 77.2725 58.9583 79.4984 56.2053C81.7242 53.4523 83.1252 50.1255 83.5392 46.6095C83.9533 43.0936 83.3635 39.5323 81.838 36.3375C80.3126 33.1428 77.9139 30.4452 74.9194 28.5568C71.9249 26.6684 68.4569 25.6664 64.9167 25.6666V25.6666Z" fill="#F0D8A8"/>
</svg>
