<svg width="1102" height="1228" viewBox="0 0 1102 1228" fill="none" xmlns="http://www.w3.org/2000/svg">
<path d="M1025.34 254.55L624.55 23.07C578.83 -3.39002 522.46 -3.39002 476.77 23.07L75.7401 254.55C30.0501 280.8 2.1001 329.72 2.1001 382.44V845.4C2.1001 898.12 30.0601 946.83 75.7401 973.3L476.78 1204.78C522.46 1231.04 578.83 1231.04 624.56 1204.78L1025.35 973.3C1071.03 946.83 1099.24 898.13 1099.24 845.4V382.44C1099.24 329.72 1071.03 280.8 1025.35 254.55H1025.34ZM550.62 102.55C604.26 102.55 647.7 146.04 647.7 199.63C647.7 253.22 551.94 608.95 550.66 613.84L550.62 613.88C550.62 613.88 453.54 253.26 453.54 199.63C453.54 146 497.03 102.55 550.62 102.55ZM107.79 358.21C134.59 311.78 193.98 295.88 240.41 322.67C286.38 349.22 545.44 608.74 550.5 613.83C544.95 612.38 189.39 517.41 143.33 490.82C96.9001 464.02 81.0001 404.63 107.79 358.2V358.21ZM550.58 1125.17C496.99 1125.17 453.5 1081.72 453.5 1028.09C453.5 974.46 549.09 619.51 550.54 613.96C546.48 617.98 286.47 878.45 240.41 905.08C193.98 931.88 134.59 915.97 107.79 869.54C80.9901 823.07 96.9001 763.72 143.33 736.92C189.43 710.25 545.65 615.2 550.54 613.91L550.58 613.87C550.58 613.87 647.66 974.49 647.66 1028.08C647.66 1081.67 604.21 1125.16 550.58 1125.16V1125.17ZM993.45 869.55C966.61 915.98 907.26 931.88 860.83 905.09C814.78 878.46 554.72 617.99 550.66 613.93C555.55 615.21 911.81 710.27 957.91 736.94C1004.34 763.74 1020.24 823.09 993.44 869.56L993.45 869.55ZM957.92 490.83C911.86 517.42 556.26 612.39 550.71 613.84C555.76 608.75 814.87 349.23 860.84 322.68C907.27 295.88 966.62 311.79 993.46 358.22C1020.26 404.65 1004.35 464.04 957.93 490.84L957.92 490.83Z" fill="#F0D8A8"/>
</svg>
